<svg width="143" height="19" viewBox="0 0 143 19" fill="none" xmlns="http://www.w3.org/2000/svg">
<path d="M6.584 18.168C5.352 18.168 4.248 17.968 3.272 17.568C2.296 17.168 1.512 16.576 0.92 15.792C0.344 15.008 0.0400001 14.064 0.00800008 12.96H4.376C4.44 13.584 4.656 14.064 5.024 14.4C5.392 14.72 5.872 14.88 6.464 14.88C7.072 14.88 7.552 14.744 7.904 14.472C8.256 14.184 8.432 13.792 8.432 13.296C8.432 12.88 8.288 12.536 8 12.264C7.728 11.992 7.384 11.768 6.968 11.592C6.568 11.416 5.992 11.216 5.24 10.992C4.152 10.656 3.264 10.32 2.576 9.984C1.888 9.648 1.296 9.152 0.8 8.496C0.304 7.84 0.0560001 6.984 0.0560001 5.928C0.0560001 4.36 0.624 3.136 1.76 2.256C2.896 1.36 4.376 0.912 6.2 0.912C8.056 0.912 9.552 1.36 10.688 2.256C11.824 3.136 12.432 4.368 12.512 5.952H8.072C8.04 5.408 7.84 4.984 7.472 4.68C7.104 4.36 6.632 4.2 6.056 4.2C5.56 4.2 5.16 4.336 4.856 4.608C4.552 4.864 4.4 5.24 4.4 5.736C4.4 6.28 4.656 6.704 5.168 7.008C5.68 7.312 6.48 7.64 7.568 7.992C8.656 8.36 9.536 8.712 10.208 9.048C10.896 9.384 11.488 9.872 11.984 10.512C12.48 11.152 12.728 11.976 12.728 12.984C12.728 13.944 12.48 14.816 11.984 15.6C11.504 16.384 10.8 17.008 9.872 17.472C8.944 17.936 7.848 18.168 6.584 18.168ZM27.8776 11.088C27.8776 11.472 27.8536 11.872 27.8056 12.288H18.5176C18.5816 13.12 18.8456 13.76 19.3096 14.208C19.7896 14.64 20.3736 14.856 21.0616 14.856C22.0856 14.856 22.7976 14.424 23.1976 13.56H27.5656C27.3416 14.44 26.9336 15.232 26.3416 15.936C25.7656 16.64 25.0376 17.192 24.1576 17.592C23.2776 17.992 22.2936 18.192 21.2056 18.192C19.8936 18.192 18.7256 17.912 17.7016 17.352C16.6776 16.792 15.8776 15.992 15.3016 14.952C14.7256 13.912 14.4376 12.696 14.4376 11.304C14.4376 9.912 14.7176 8.696 15.2776 7.656C15.8536 6.616 16.6536 5.816 17.6776 5.256C18.7016 4.696 19.8776 4.416 21.2056 4.416C22.5016 4.416 23.6536 4.688 24.6616 5.232C25.6696 5.776 26.4536 6.552 27.0136 7.56C27.5896 8.568 27.8776 9.744 27.8776 11.088ZM23.6776 10.008C23.6776 9.304 23.4376 8.744 22.9576 8.328C22.4776 7.912 21.8776 7.704 21.1576 7.704C20.4696 7.704 19.8856 7.904 19.4056 8.304C18.9416 8.704 18.6536 9.272 18.5416 10.008H23.6776ZM29.2267 11.304C29.2267 9.912 29.5067 8.696 30.0667 7.656C30.6427 6.616 31.4347 5.816 32.4427 5.256C33.4667 4.696 34.6347 4.416 35.9467 4.416C37.6267 4.416 39.0267 4.856 40.1467 5.736C41.2827 6.616 42.0267 7.856 42.3787 9.456H38.0107C37.6427 8.432 36.9307 7.92 35.8747 7.92C35.1227 7.92 34.5227 8.216 34.0747 8.808C33.6267 9.384 33.4027 10.216 33.4027 11.304C33.4027 12.392 33.6267 13.232 34.0747 13.824C34.5227 14.4 35.1227 14.688 35.8747 14.688C36.9307 14.688 37.6427 14.176 38.0107 13.152H42.3787C42.0267 14.72 41.2827 15.952 40.1467 16.848C39.0107 17.744 37.6107 18.192 35.9467 18.192C34.6347 18.192 33.4667 17.912 32.4427 17.352C31.4347 16.792 30.6427 15.992 30.0667 14.952C29.5067 13.912 29.2267 12.696 29.2267 11.304ZM48.6779 6.84C49.1579 6.104 49.7579 5.528 50.4779 5.112C51.1979 4.68 51.9979 4.464 52.8779 4.464V8.808H51.7499C50.7259 8.808 49.9579 9.032 49.4459 9.48C48.9339 9.912 48.6779 10.68 48.6779 11.784V18H44.5739V4.608H48.6779V6.84ZM67.4636 11.088C67.4636 11.472 67.4396 11.872 67.3916 12.288H58.1036C58.1676 13.12 58.4316 13.76 58.8956 14.208C59.3756 14.64 59.9596 14.856 60.6476 14.856C61.6716 14.856 62.3836 14.424 62.7836 13.56H67.1516C66.9276 14.44 66.5196 15.232 65.9276 15.936C65.3516 16.64 64.6236 17.192 63.7436 17.592C62.8636 17.992 61.8796 18.192 60.7916 18.192C59.4796 18.192 58.3116 17.912 57.2876 17.352C56.2636 16.792 55.4636 15.992 54.8876 14.952C54.3116 13.912 54.0236 12.696 54.0236 11.304C54.0236 9.912 54.3036 8.696 54.8636 7.656C55.4396 6.616 56.2396 5.816 57.2636 5.256C58.2876 4.696 59.4636 4.416 60.7916 4.416C62.0876 4.416 63.2396 4.688 64.2476 5.232C65.2556 5.776 66.0396 6.552 66.5996 7.56C67.1756 8.568 67.4636 9.744 67.4636 11.088ZM63.2636 10.008C63.2636 9.304 63.0236 8.744 62.5436 8.328C62.0636 7.912 61.4636 7.704 60.7436 7.704C60.0556 7.704 59.4716 7.904 58.9916 8.304C58.5276 8.704 58.2396 9.272 58.1276 10.008H63.2636ZM77.0926 14.52V18H75.0046C73.5166 18 72.3566 17.64 71.5246 16.92C70.6926 16.184 70.2766 14.992 70.2766 13.344V8.016H68.6446V4.608H70.2766V1.344H74.3806V4.608H77.0686V8.016H74.3806V13.392C74.3806 13.792 74.4766 14.08 74.6686 14.256C74.8606 14.432 75.1806 14.52 75.6286 14.52H77.0926ZM98.4586 1.152V18H94.3546V7.896L90.5866 18H87.2746L83.4826 7.872V18H79.3786V1.152H84.2266L88.9546 12.816L93.6346 1.152H98.4586ZM103.33 18.192C102.61 18.192 102.018 17.984 101.554 17.568C101.106 17.136 100.882 16.608 100.882 15.984C100.882 15.344 101.106 14.808 101.554 14.376C102.018 13.944 102.61 13.728 103.33 13.728C104.034 13.728 104.61 13.944 105.058 14.376C105.522 14.808 105.754 15.344 105.754 15.984C105.754 16.608 105.522 17.136 105.058 17.568C104.61 17.984 104.034 18.192 103.33 18.192ZM127.263 1.152V18H123.159V7.896L119.391 18H116.079L112.287 7.872V18H108.183V1.152H113.031L117.759 12.816L122.439 1.152H127.263ZM142.839 11.088C142.839 11.472 142.815 11.872 142.767 12.288H133.479C133.543 13.12 133.807 13.76 134.271 14.208C134.751 14.64 135.335 14.856 136.023 14.856C137.047 14.856 137.759 14.424 138.159 13.56H142.527C142.303 14.44 141.895 15.232 141.303 15.936C140.727 16.64 139.999 17.192 139.119 17.592C138.239 17.992 137.255 18.192 136.167 18.192C134.855 18.192 133.687 17.912 132.663 17.352C131.639 16.792 130.839 15.992 130.263 14.952C129.687 13.912 129.399 12.696 129.399 11.304C129.399 9.912 129.679 8.696 130.239 7.656C130.815 6.616 131.615 5.816 132.639 5.256C133.663 4.696 134.839 4.416 136.167 4.416C137.463 4.416 138.615 4.688 139.623 5.232C140.631 5.776 141.415 6.552 141.975 7.56C142.551 8.568 142.839 9.744 142.839 11.088ZM138.639 10.008C138.639 9.304 138.399 8.744 137.919 8.328C137.439 7.912 136.839 7.704 136.119 7.704C135.431 7.704 134.847 7.904 134.367 8.304C133.903 8.704 133.615 9.272 133.503 10.008H138.639Z" fill="white"/>
</svg>
